<svg id="Layer_1" data-name="Layer 1" xmlns="http://www.w3.org/2000/svg" viewBox="0 0 154.01 32.19"><defs><style>.cls-1{fill:none;stroke:#000;stroke-miterlimit:10;stroke-width:10px;}.cls-2{fill:#e8e8e8;}.cls-3{fill:#fff;}.cls-4{fill:#a2abe3;}.cls-5{fill:#5979c4;}.cls-6{isolation:isolate;}.cls-7{fill:#cf705a;}</style></defs><g id="Group_406" data-name="Group 406"><g id="logo_04" data-name="logo 04"><g id="Layer_2" data-name="Layer 2"><g id="Path_85" data-name="Path 85"><path class="cls-1" d="M16.56,15.32" transform="translate(0 0)"/></g><g id="Path_86" data-name="Path 86"><path class="cls-1" d="M12.78,15.32" transform="translate(0 0)"/></g></g><g id="Layer_5" data-name="Layer 5"><g id="Group_172" data-name="Group 172"><g id="Group_171" data-name="Group 171"><g id="Path_87" data-name="Path 87"><path class="cls-2" d="M1.87,15.36a0,0,0,0,0,0,0,0,0,0,0,0,0-.05,0,0,0,0,0-.05.05A0,0,0,0,0,1.87,15.36Z" transform="translate(0 0)"/></g></g></g><g id="Path_88" data-name="Path 88"><path class="cls-3" d="M15.58,13.22H11.21a2.19,2.19,0,0,1,4.37,0Z" transform="translate(0 0)"/></g><g id="Path_89" data-name="Path 89"><path class="cls-3" d="M21.15,13.22H16.78a2.19,2.19,0,0,1,4.37,0Z" transform="translate(0 0)"/></g><g id="Path_90" data-name="Path 90"><path class="cls-4" d="M32.16,14.16A16.09,16.09,0,0,0,16.18,0C7.43,0,1.37,7.14.27,14.15a15.9,15.9,0,0,0-.18,1.94C-.07,22.66,4.45,27.14,5,27.69a17.07,17.07,0,0,0,11.15,4.5,16.11,16.11,0,0,0,16.1-16.12,15.19,15.19,0,0,0-.12-1.91ZM21.81,12.84a2.48,2.48,0,0,0-4.95,0H15.5a2.47,2.47,0,1,0-4.94-.1v.1h-1a3.48,3.48,0,0,1,6.64-1.48,3.48,3.48,0,0,1,6.64,1.48Z" transform="translate(0 0)"/></g><g id="Path_91" data-name="Path 91"><path class="cls-5" d="M16.19,19.19H16a4.54,4.54,0,0,1-4.38-4.39.5.5,0,1,1,1,0,3.52,3.52,0,0,0,5.94,2.46,3.5,3.5,0,0,0,1.12-2.46.49.49,0,0,1,.51-.49.5.5,0,0,1,.49.52,4.54,4.54,0,0,1-4.53,4.39Z" transform="translate(0 0)"/></g><g id="Path_92" data-name="Path 92"><path class="cls-5" d="M15.5,12.84H10.56a2.47,2.47,0,1,1,4.94-.1v.1Z" transform="translate(0 0)"/></g><g id="Path_93" data-name="Path 93"><path class="cls-5" d="M21.81,12.84H16.86a2.48,2.48,0,0,1,4.95,0Z" transform="translate(0 0)"/></g></g><g id="Layer_6" data-name="Layer 6"><g id="Path_94" data-name="Path 94"><path class="cls-5" d="M4.73,27.5a2,2,0,0,1-.24-.25,12.58,12.58,0,0,1-1-1.18,14.47,14.47,0,0,1-1-1.41,15.7,15.7,0,0,1-1.3-2.55c-.27-.68-.45-1.22-.53-1.48a17.71,17.71,0,0,1-.42-1.78A11.44,11.44,0,0,1,0,17.54c0-.53,0-.94,0-1.21s0-.72,0-.82,0-.48.06-.61A2.51,2.51,0,0,1,.92,13c.54-.36,1.15-.07,2.37.49A7.3,7.3,0,0,1,5,14.41,5,5,0,0,1,6.41,17,13.74,13.74,0,0,0,8.07,21.2,6.74,6.74,0,0,0,9.8,22.92c.19.12.39.24.6.35a.52.52,0,0,1,.21.68.51.51,0,0,1-.68.21c-.24-.13-.47-.27-.7-.42a7.61,7.61,0,0,1-2-2,14.85,14.85,0,0,1-1.8-4.51,4,4,0,0,0-1.11-2.06A6.59,6.59,0,0,0,2.9,14.4a5.13,5.13,0,0,0-1.47-.56c-.22.14-.31.85-.35,1.19a5,5,0,0,0-.05.55c0,.1,0,.37,0,.75S1,17,1,17.46a10,10,0,0,0,.16,1.21,15,15,0,0,0,.39,1.67c.06.2.23.73.5,1.39A14.48,14.48,0,0,0,3.3,24.12a16.07,16.07,0,0,0,1,1.33,14.55,14.55,0,0,0,1,1.12l.21.22Z" transform="translate(0 0)"/></g><g id="Path_95" data-name="Path 95"><path class="cls-5" d="M27.25,27.65a.49.49,0,0,1-.35-.15.5.5,0,0,1,0-.71,2.24,2.24,0,0,0,.22-.22c.33-.35.65-.73.95-1.11a15.71,15.71,0,0,0,1-1.34,14,14,0,0,0,1.2-2.38c.27-.65.43-1.16.51-1.4a16,16,0,0,0,.39-1.66c.07-.41.13-.82.16-1.22s0-.88,0-1.13,0-.65,0-.75l0-.55c0-.34-.13-1-.37-1.2a5.77,5.77,0,0,0-1.42.56,6.62,6.62,0,0,0-1.51.82,4.07,4.07,0,0,0-1.06,2,14.77,14.77,0,0,1-1.77,4.49,7.8,7.8,0,0,1-2,2c-.23.15-.46.29-.7.42a.5.5,0,0,1-.47-.89,6,6,0,0,0,.6-.36,6.73,6.73,0,0,0,1.75-1.74A13.69,13.69,0,0,0,25.93,17a4.89,4.89,0,0,1,1.38-2.55,7.22,7.22,0,0,1,1.76-1c1.19-.55,1.8-.83,2.35-.48s.75,1.31.83,1.91c0,.13,0,.37,0,.61s0,.4,0,.81,0,.69,0,1.21-.1.89-.18,1.33a14.19,14.19,0,0,1-.42,1.77c-.08.26-.25.8-.53,1.48a15.64,15.64,0,0,1-1.29,2.55,16,16,0,0,1-1,1.42c-.31.4-.65.8-1,1.18l-.24.24A.51.51,0,0,1,27.25,27.65Z" transform="translate(0 0)"/></g></g></g><g id="DORMBUDDY" class="cls-6"><g class="cls-6"><path class="cls-5" d="M39.73,10.86h5.08a7.24,7.24,0,0,1,3.23.7,5.16,5.16,0,0,1,2.17,2A5.51,5.51,0,0,1,51,16.47a5.5,5.5,0,0,1-.78,2.94,5.23,5.23,0,0,1-2.17,2,7.24,7.24,0,0,1-3.23.69H39.73Zm5,9.08A3.79,3.79,0,0,0,47.37,19a3.32,3.32,0,0,0,1-2.53,3.33,3.33,0,0,0-1-2.54A3.79,3.79,0,0,0,44.69,13H42.32v7Z" transform="translate(0 0)"/><path class="cls-5" d="M55.22,21.51A5.69,5.69,0,0,1,53,19.43a5.63,5.63,0,0,1-.79-3,5.57,5.57,0,0,1,3-5,6.87,6.87,0,0,1,6.28,0,5.6,5.6,0,0,1,3,5,5.55,5.55,0,0,1-.8,3,5.69,5.69,0,0,1-2.19,2.08,6.95,6.95,0,0,1-6.28,0Zm4.94-1.92a3.18,3.18,0,0,0,1.25-1.27,4,4,0,0,0,0-3.71,3.18,3.18,0,0,0-1.25-1.27,3.73,3.73,0,0,0-3.59,0,3.18,3.18,0,0,0-1.25,1.27,4,4,0,0,0,0,3.71,3.18,3.18,0,0,0,1.25,1.27,3.73,3.73,0,0,0,3.59,0Z" transform="translate(0 0)"/><path class="cls-5" d="M73.58,22.06,71.42,19H69v3.11H66.45V10.86h4.84a6.23,6.23,0,0,1,2.59.5,3.86,3.86,0,0,1,1.69,1.41,3.93,3.93,0,0,1,.59,2.16,3.63,3.63,0,0,1-2.31,3.53l2.52,3.6Zm-.65-8.58a2.78,2.78,0,0,0-1.78-.5H69v3.9h2.11a2.72,2.72,0,0,0,1.78-.51,1.79,1.79,0,0,0,.6-1.44A1.79,1.79,0,0,0,72.93,13.48Z" transform="translate(0 0)"/><path class="cls-5" d="M88.4,22.06l0-6.71-3.29,5.53H83.92l-3.28-5.39v6.57H78.21V10.86h2.14l4.19,7,4.13-7H90.8l0,11.2Z" transform="translate(0 0)"/></g><g class="cls-6"><path class="cls-7" d="M103.21,17.26a2.75,2.75,0,0,1,.55,1.75,2.57,2.57,0,0,1-1.15,2.26,5.81,5.81,0,0,1-3.33.79H93.49V10.86H99a5.37,5.37,0,0,1,3.14.79,2.48,2.48,0,0,1,1.1,2.13,2.71,2.71,0,0,1-.39,1.45,2.75,2.75,0,0,1-1.1,1A2.89,2.89,0,0,1,103.21,17.26Zm-7.15-4.44v2.64h2.58a2.53,2.53,0,0,0,1.45-.34,1.11,1.11,0,0,0,.5-1,1.09,1.09,0,0,0-.5-1,2.61,2.61,0,0,0-1.45-.33Zm4.57,7a1.15,1.15,0,0,0,.52-1c0-.93-.69-1.39-2.06-1.39h-3v2.76h3A2.91,2.91,0,0,0,100.63,19.78Z" transform="translate(0 0)"/><path class="cls-7" d="M107,20.93a5.12,5.12,0,0,1-1.34-3.79V10.86h2.59V17c0,2,.83,3,2.5,3a2.3,2.3,0,0,0,1.85-.73,3.36,3.36,0,0,0,.64-2.28V10.86h2.56v6.28a5.12,5.12,0,0,1-1.33,3.79,5.91,5.91,0,0,1-7.47,0Z" transform="translate(0 0)"/><path class="cls-7" d="M118.33,10.86h5.09a7.24,7.24,0,0,1,3.23.7,5.22,5.22,0,0,1,2.17,2,5.51,5.51,0,0,1,.78,2.95,5.5,5.5,0,0,1-.78,2.94,5.29,5.29,0,0,1-2.17,2,7.24,7.24,0,0,1-3.23.69h-5.09Zm5,9.08A3.77,3.77,0,0,0,126,19a3.28,3.28,0,0,0,1-2.53,3.29,3.29,0,0,0-1-2.54,3.77,3.77,0,0,0-2.68-.94h-2.37v7Z" transform="translate(0 0)"/><path class="cls-7" d="M131.55,10.86h5.09a7.2,7.2,0,0,1,3.22.7,5.25,5.25,0,0,1,2.18,2,5.59,5.59,0,0,1,.77,2.95,5.58,5.58,0,0,1-.77,2.94,5.32,5.32,0,0,1-2.18,2,7.19,7.19,0,0,1-3.22.69h-5.09Zm5,9.08a3.79,3.79,0,0,0,2.68-.94,3.28,3.28,0,0,0,1-2.53,3.29,3.29,0,0,0-1-2.54,3.79,3.79,0,0,0-2.68-.94h-2.37v7Z" transform="translate(0 0)"/><path class="cls-7" d="M149.66,18.1v4h-2.59v-4l-4.34-7.2h2.76l3,5,3-5H154Z" transform="translate(0 0)"/></g></g></g></svg>