<svg xmlns="http://www.w3.org/2000/svg" width="24.185" height="28.988" viewBox="0 0 24.185 28.988">
  <g id="Group_92" data-name="Group 92" transform="translate(-336.822 -14.935)">
    <g id="user" transform="translate(336.822 14.935)">
      <path id="Path_39" data-name="Path 39" d="M94.013,13.964a6.756,6.756,0,0,0,4.937-2.046A6.756,6.756,0,0,0,101,6.982,6.757,6.757,0,0,0,98.95,2.045a6.98,6.98,0,0,0-9.873,0,6.756,6.756,0,0,0-2.046,4.936,6.756,6.756,0,0,0,2.046,4.937A6.758,6.758,0,0,0,94.013,13.964ZM90.278,3.246a5.281,5.281,0,0,1,7.471,0A5.048,5.048,0,0,1,99.3,6.982a5.048,5.048,0,0,1-1.548,3.735,5.281,5.281,0,0,1-7.471,0A5.047,5.047,0,0,1,88.73,6.982,5.047,5.047,0,0,1,90.278,3.246Zm0,0" transform="translate(-82.104 0)" fill="#5979c4"/>
      <path id="Path_40" data-name="Path 40" d="M24.126,255.6a17.245,17.245,0,0,0-.235-1.832,14.433,14.433,0,0,0-.451-1.842,9.1,9.1,0,0,0-.757-1.718,6.475,6.475,0,0,0-1.141-1.488,5.034,5.034,0,0,0-1.64-1.03,5.667,5.667,0,0,0-2.094-.379,2.125,2.125,0,0,0-1.135.481c-.34.222-.738.478-1.182.762a6.774,6.774,0,0,1-1.53.674,5.94,5.94,0,0,1-3.742,0,6.752,6.752,0,0,1-1.528-.674c-.44-.281-.838-.538-1.183-.763a2.123,2.123,0,0,0-1.134-.481,5.66,5.66,0,0,0-2.093.379,5.029,5.029,0,0,0-1.64,1.03A6.476,6.476,0,0,0,1.5,250.214a9.113,9.113,0,0,0-.757,1.718,14.464,14.464,0,0,0-.45,1.841,17.125,17.125,0,0,0-.235,1.832c-.038.554-.058,1.13-.058,1.712a4.814,4.814,0,0,0,1.43,3.642A5.146,5.146,0,0,0,5.114,262.3H19.072a5.146,5.146,0,0,0,3.684-1.344,4.812,4.812,0,0,0,1.43-3.642C24.185,256.733,24.165,256.156,24.126,255.6Zm-2.542,4.123a3.465,3.465,0,0,1-2.513.876H5.114a3.465,3.465,0,0,1-2.513-.875,3.143,3.143,0,0,1-.9-2.411c0-.543.018-1.08.054-1.594a15.448,15.448,0,0,1,.212-1.65,12.756,12.756,0,0,1,.4-1.624,7.419,7.419,0,0,1,.616-1.4,4.8,4.8,0,0,1,.839-1.1,3.339,3.339,0,0,1,1.091-.678,3.909,3.909,0,0,1,1.338-.258c.059.032.165.092.337.2.349.228.752.487,1.2.771a8.417,8.417,0,0,0,1.92.858,7.637,7.637,0,0,0,4.787,0,8.426,8.426,0,0,0,1.921-.859c.455-.291.847-.543,1.2-.771.172-.112.278-.172.337-.2a3.912,3.912,0,0,1,1.338.258,3.344,3.344,0,0,1,1.091.678,4.787,4.787,0,0,1,.839,1.1,7.4,7.4,0,0,1,.616,1.4,12.731,12.731,0,0,1,.4,1.624,15.579,15.579,0,0,1,.212,1.65h0c.036.513.054,1.049.054,1.594A3.143,3.143,0,0,1,21.584,259.728Zm0,0" transform="translate(0 -233.314)" fill="#5979c4"/>
    </g>
  </g>
</svg>
