<svg xmlns="http://www.w3.org/2000/svg" width="94.124" height="93.579" viewBox="0 0 94.124 93.579"><g transform="translate(-142 -677.461)"><g transform="translate(151.75 759.5) rotate(-90)"><path d="M71.5,35.75A35.75,35.75,0,1,1,35.75,0,35.75,35.75,0,0,1,71.5,35.75ZM37.984,22.344a2.234,2.234,0,0,0-4.469,0V43.762l-9.591-9.595a2.237,2.237,0,0,0-3.164,3.164L34.167,50.737a2.234,2.234,0,0,0,3.164,0L50.737,37.331a2.237,2.237,0,1,0-3.164-3.164l-9.589,9.595Z" fill="#cf705a" fill-rule="evenodd"/></g><circle cx="46" cy="46" r="46" transform="translate(142 678)" fill="none" opacity="0.594"/><path d="M234.608,721.888Z" fill="none" stroke="#d0d0d0" stroke-width="1"/><path d="M189.691,678.5a46.536,46.536,0,0,1,9.11,1.31,39.634,39.634,0,0,1,8.9,3.22c1.176.6,2.575,1.211,4.051,2.114a47.417,47.417,0,0,1,11.467,10.09,45.923,45.923,0,0,1,10.309,27.526c.006.118-.01,1.13,0,1.535,0,.024,0-.028,0,.253" fill="none" stroke="#cf705a" stroke-linecap="round" stroke-width="2"/><path d="M189.691,678.5a46.536,46.536,0,0,1,9.11,1.31,39.634,39.634,0,0,1,8.9,3.22c1.176.6,2.575,1.211,4.051,2.114a47.417,47.417,0,0,1,11.467,10.09,45.923,45.923,0,0,1,10.309,27.526c.006.118-.01,1.13,0,1.535,0,.024,0-.028,0,.253" transform="translate(904.987 511.331) rotate(88)" fill="none" stroke="#cf705a" stroke-linecap="round" stroke-width="2"/></g></svg>