<svg xmlns="http://www.w3.org/2000/svg" width="262.596" height="236.36" viewBox="0 0 262.596 236.36"><g transform="translate(-96.404 -99)"><g transform="translate(-356.49 -298.09)"><g transform="translate(524.512 539.209)"><path d="M1012.76,973.59" transform="translate(-991.681 -973.59)" fill="none" stroke="#000" stroke-miterlimit="10" stroke-width="10"/><path d="M884.65,973.59" transform="translate(-884.65 -973.59)" fill="none" stroke="#000" stroke-miterlimit="10" stroke-width="10"/></g><g transform="translate(453.584 453.66)"><g transform="translate(9.712 85.302)"><path d="M512.851,972.584a.247.247,0,0,0,0-.494.247.247,0,0,0,0,.494Z" transform="translate(-512.613 -972.09)" fill="#e8e8e8"/></g><path d="M855.7,840.354H831.29a12.2,12.2,0,0,1,24.408,0Z" transform="translate(-769.142 -766.532)" fill="#fff"/><path d="M1044.776,840.354H1020.37a12.2,12.2,0,1,1,24.406,0Z" transform="translate(-927.111 -766.532)" fill="#fff"/><path d="M632.752,532.746A89.908,89.908,0,0,0,543.5,453.66c-48.886,0-82.735,39.878-88.9,79.048a82.611,82.611,0,0,0-.992,10.846c-.877,36.671,24.35,61.688,27.6,64.812,3.692,3.549,27.74,25.082,62.295,25.082a89.963,89.963,0,0,0,89.251-100.7ZM574.9,525.368a13.809,13.809,0,1,0-27.618,0H539.7a13.81,13.81,0,0,0-27.62,0h-5.657a19.452,19.452,0,0,1,37.068-8.266,19.453,19.453,0,0,1,37.069,8.266Z" transform="translate(-453.584 -453.66)" fill="#a2abe3"/><path d="M908.4,955.51c0,11.916-10.159,21.721-22.5,21.721s-22.5-9.8-22.5-21.721" transform="translate(-795.969 -872.936)" fill="none" stroke="#5979c4" stroke-linecap="round" stroke-miterlimit="10" stroke-width="6"/><path d="M836.71,819.35H809.09a13.81,13.81,0,0,1,27.62,0Z" transform="translate(-750.595 -747.642)" fill="#5979c4"/><path d="M1050.666,819.35H1023.05a13.808,13.808,0,1,1,27.616,0Z" transform="translate(-929.35 -747.642)" fill="#5979c4"/></g><g transform="translate(455.892 528.149)"><path d="M521.578,964.338a38.193,38.193,0,0,1-3.631-2.17,41.108,41.108,0,0,1-10.471-10.452c-6.407-9.217-8.459-20.924-9.583-24.217-2.728-8-4.173-10.473-6.968-12.892-1.872-1.621-4.211-2.707-8.885-4.879-5.838-2.712-8.826-4.1-10.628-2.962-2.46,1.55-2.99,5.784-3.355,8.688-.084.67-.2,1.942-.29,3.233-.038.568-.137,2.162-.155,4.375-.012,1.473-.025,3.712.194,6.542a68.284,68.284,0,0,0,.94,7.095,84.313,84.313,0,0,0,2.274,9.579c.23.762,1.191,3.916,2.884,8.046a82.745,82.745,0,0,0,6.978,13.774,91.927,91.927,0,0,0,5.555,7.694,82.31,82.31,0,0,0,5.473,6.4c.52.545.962.992,1.277,1.306" transform="translate(-467.607 -906.369)" fill="none" stroke="#5979c4" stroke-linecap="round" stroke-miterlimit="10" stroke-width="6"/><path d="M1203.35,964.338a38.2,38.2,0,0,0,3.631-2.17,41.11,41.11,0,0,0,10.471-10.452c6.407-9.217,8.459-20.924,9.583-24.217,2.728-8,4.173-10.473,6.968-12.892,1.872-1.621,4.211-2.707,8.885-4.879,5.838-2.712,8.826-4.1,10.628-2.962,2.46,1.55,2.99,5.784,3.355,8.688.084.67.2,1.942.29,3.233.038.568.136,2.162.155,4.375.011,1.473.025,3.712-.194,6.542a68.3,68.3,0,0,1-.939,7.095,84.3,84.3,0,0,1-2.274,9.579c-.23.762-1.191,3.916-2.884,8.046a82.745,82.745,0,0,1-6.978,13.774,91.956,91.956,0,0,1-5.555,7.694,82.307,82.307,0,0,1-5.473,6.4c-.52.545-.963.992-1.277,1.306" transform="translate(-1082.291 -906.369)" fill="none" stroke="#5979c4" stroke-linecap="round" stroke-miterlimit="10" stroke-width="6"/></g></g><path d="M15,0H143a15,15,0,0,1,15,15V33a15,15,0,0,1-15,15H0a0,0,0,0,1,0,0V15A15,15,0,0,1,15,0Z" transform="translate(201 99)" fill="#dde1f9" opacity="0.3"/><text transform="translate(215 120)" fill="#5979c4" font-size="12" font-family="Montserrat-Regular, Montserrat"><tspan x="0" y="0">Greetings!</tspan><tspan x="0" y="15">I&apos;m your </tspan><tspan y="15" fill="#cf705a" font-family="Montserrat-SemiBold, Montserrat" font-weight="600">DormBuddy</tspan><tspan y="15">.</tspan></text></g></svg>