<svg xmlns="http://www.w3.org/2000/svg" width="198.387" height="216.608" viewBox="0 0 198.387 216.608"><g transform="translate(-688.912 -44.934)"><g transform="translate(738.337 171.978)"><g transform="translate(0.871 0.871)"><path d="M870.441,485.245c8.606-.161,17.083,52.352,17.423,61.064a43.156,43.156,0,0,0,.531,5.315c.881,6.211,1.289,9.376,3.115,10.341,2.358,1.247,4.3-1.057,11.953-1.493,4.54-.258,6.375.41,7.528,1.605.2.207,1.833,1.9,1.422,3.6-.594,2.455-4.815,2.7-15.948,5.4-7.648,1.853-8.239,2.368-9.7,1.728-2.266-.993-3.931-3.682-6.434-19.754-.547-3.514-.778-5.278-.882-6.095-2.274-17.869-16.025-25.678-17.31-40.41C861.25,496.372,866.516,485.319,870.441,485.245Z" transform="translate(-862.039 -485.245)" fill="#a2abe3"/></g><path d="M885.774,571.809a3.5,3.5,0,0,1-1.487-.336c-2.794-1.224-4.46-4.463-6.945-20.418-.58-3.723-.81-5.526-.885-6.119-1.145-9-5.26-15.384-9.239-21.554-3.822-5.928-7.433-11.527-8.075-18.89-.7-7.977,2.307-16.545,5.613-20.22a5.117,5.117,0,0,1,3.541-2.025h.059c2.429,0,4.678,2.8,7.072,8.8a134.534,134.534,0,0,1,5.546,19.086c3.17,13.9,5.454,29.435,5.633,34.019a41.418,41.418,0,0,0,.5,5.094l.08.563c.753,5.317,1.208,8.527,2.6,9.262.878.464,1.668.276,3.529-.233a35,35,0,0,1,7.967-1.359c4.311-.245,6.687.3,8.2,1.871.508.527,2.127,2.4,1.641,4.411-.584,2.414-3.325,3.027-9.947,4.506-1.91.427-4.075.91-6.643,1.532-2,.485-3.492.871-4.691,1.182A19.156,19.156,0,0,1,885.774,571.809Zm-17.443-87.82a3.66,3.66,0,0,0-2.278,1.449c-3.057,3.4-5.828,11.4-5.173,18.9.605,6.933,4.1,12.356,7.8,18.1,4.084,6.334,8.307,12.883,9.5,22.278.075.587.3,2.372.879,6.071,2.549,16.371,4.19,18.331,5.922,19.09.776.34,1.161.258,4.429-.588,1.205-.312,2.7-.7,4.718-1.189,2.583-.626,4.756-1.111,6.673-1.539,5.529-1.235,8.3-1.855,8.633-3.215.285-1.176-.951-2.532-1.2-2.792-.822-.852-2.223-1.6-6.851-1.34a33.451,33.451,0,0,0-7.606,1.3c-1.906.521-3.282.9-4.8.093-2.176-1.151-2.622-4.295-3.509-10.559l-.08-.562a43.4,43.4,0,0,1-.521-5.271c-.177-4.519-2.442-19.894-5.591-33.7-5.6-24.56-9.755-26.527-10.926-26.527Z" transform="translate(-859.042 -482.245)"/></g><g transform="translate(690.655 157.852)"><g transform="translate(0.872 0.86)"><path d="M765.052,440.055c-4.181,37.01-16.6,52.207-28.075,58.967-10.782,6.351-27.268,9.106-27.614,16.7-.286,6.271,10.651,11.332,8.7,16.236-.763,1.918-3.12,2.864-4.784,2.986-7.222.528-12.719-13.664-13.482-15.632-1.537-3.968-2.194-5.929-1.747-8.321.839-4.492,5.517-6.313,14.834-11.773,5.753-3.372,11.548-7.116,13.654-8.69,17.538-13.105,6.258-44.9,19.785-52.473C749.54,436.251,755.067,435.313,765.052,440.055Z" transform="translate(-697.912 -436.583)" fill="#a2abe3"/></g><g transform="translate(0)"><path d="M710.754,533.725c-6.868,0-11.989-11.272-13.9-16.2-1.523-3.932-2.294-6.108-1.792-8.8.769-4.118,4.354-6.152,10.862-9.846,1.308-.742,2.791-1.584,4.388-2.52,5.774-3.384,11.541-7.117,13.573-8.636,8.986-6.715,10.182-18.865,11.238-29.584.971-9.859,1.888-19.171,8.643-22.951,4.681-2.619,11.252-1.954,19.529,1.977l.562.267-.07.618c-1.915,16.953-5.752,30.8-11.4,41.147-4.488,8.219-10.239,14.434-17.1,18.473a92.747,92.747,0,0,1-12.312,5.651c-7.545,3.034-14.672,5.9-14.874,10.334-.124,2.722,2.291,5.34,4.625,7.872,2.678,2.9,5.207,5.645,4.013,8.647-.881,2.214-3.484,3.383-5.53,3.533C711.059,533.72,710.906,533.725,710.754,533.725ZM750.28,435.36a11.416,11.416,0,0,0-5.662,1.351c-5.961,3.336-6.795,11.8-7.76,21.6-1.091,11.078-2.327,23.635-11.929,30.81-2.069,1.546-7.909,5.329-13.735,8.743-1.607.942-3.1,1.787-4.409,2.532-6.251,3.547-9.389,5.328-10.009,8.65-.4,2.126.151,3.841,1.7,7.847,1.414,3.65,6.511,15.525,12.606,15.077,1.27-.093,3.393-.819,4.037-2.439.788-1.982-1.38-4.332-3.675-6.82-2.457-2.665-5.243-5.684-5.086-9.133.253-5.554,7.534-8.482,15.964-11.873A91.5,91.5,0,0,0,734.4,496.17c14.869-8.759,24.147-28.169,27.581-57.693C757.481,436.4,753.567,435.36,750.28,435.36Z" transform="translate(-694.91 -433.622)"/></g></g><g transform="translate(688.912 87.18)"><g transform="translate(0.864 0.854)"><path d="M759.15,304.429a52.152,52.152,0,0,0,27.655-12.565c25.365-22.728,15.74-61.995-2.075-81.444-2.756-3.009-11.673-12.493-26.045-15.9-25.993-6.154-55.962,11.379-64.324,38.079-5.065,16.173-2.935,38.058,11.792,53.832A59.5,59.5,0,0,0,735.6,303.223" transform="translate(-691.886 -193.291)" fill="#a2abe3"/></g><g transform="translate(0 0)"><path d="M757.039,303.215a.872.872,0,0,1-.122-1.734,51.358,51.358,0,0,0,27.2-12.352c9.225-8.266,14.442-19.539,15.086-32.6.819-16.6-5.941-35.288-17.222-47.6-7.431-8.113-16.045-13.373-25.6-15.636-25.564-6.053-55.141,11.467-63.291,37.492-4.387,14.009-3.983,36.289,11.6,52.977A58.962,58.962,0,0,0,733.7,300.292a.871.871,0,0,1-.411,1.694,60.72,60.72,0,0,1-29.877-17.04,54.018,54.018,0,0,1-13.538-27.2,58.318,58.318,0,0,1,1.551-27.483c4.041-12.9,13.5-24.511,25.939-31.851,12.416-7.323,26.783-9.807,39.417-6.816,9.9,2.345,18.815,7.78,26.486,16.155,11.58,12.642,18.519,31.824,17.678,48.868-.668,13.538-6.084,25.231-15.664,33.814a53.094,53.094,0,0,1-28.114,12.779A.91.91,0,0,1,757.039,303.215Z" transform="translate(-688.912 -190.352)"/></g></g><g transform="translate(771.401 126.007)"><circle cx="1.016" cy="1.016" r="1.016" transform="translate(0)"/></g><g transform="translate(776.555 124.889)"><path d="M996.878,326.05a8.5,8.5,0,0,1-6.092-2.765.726.726,0,0,1,1.075-.977,7.02,7.02,0,0,0,5.018,2.29l.143,0a6.917,6.917,0,0,0,6.021-4.029.726.726,0,0,1,1.308.632,8.362,8.362,0,0,1-7.3,4.85Z" transform="translate(-990.597 -320.156)"/></g><g transform="translate(784.497 157.879)"><rect width="74.375" height="43.599" transform="translate(0.872 0.871)" fill="#bea26c"/><path d="M1094.054,479.057h-76.118V433.715h76.118Zm-74.375-1.743h72.632V435.458h-72.632Z" transform="translate(-1017.936 -433.715)"/><g transform="translate(74.376)"><rect width="13.556" height="43.599" transform="translate(0.871 0.871)" fill="#7a6441"/><path d="M1289.251,479.057h-15.3V433.715h15.3Zm-13.556-1.743h11.813V435.458H1275.7Z" transform="translate(-1273.952 -433.715)"/></g></g><g transform="translate(817.472 157.879)"><rect width="11.175" height="11.175" transform="translate(0.872 0.871)" fill="#796e44"/><path d="M1144.358,446.633H1131.44V433.715h12.918Zm-11.175-1.743h9.432v-9.431h-9.432Z" transform="translate(-1131.44 -433.715)"/></g><g transform="translate(835.065 44.934)"><g transform="translate(9.168 51.163)"><rect width="5.679" height="28.399" transform="matrix(0.952, 0.306, -0.306, 0.952, 9.796, 1.097)" fill="#ededed"/><path d="M1230.622,252.015l-7.065-2.274,9.234-28.693,7.065,2.274Zm-4.872-3.4,3.747,1.206,8.166-25.374-3.747-1.206Z" transform="translate(-1223.557 -221.048)"/></g><g transform="translate(1.265 1.049)"><path d="M1243.648,55.651l-11.026-3.6-11.055-3.508-25.211,46.67,20.277,6.525,20.277,6.525Z" transform="translate(-1196.354 -48.545)" fill="#cf705a"/></g><path d="M1234.551,106.854,1192,93.161l26.053-48.227,11.743,3.726,11.719,3.824Zm-40.021-14.71,38.558,12.408,6.514-50.859-10.341-3.374L1218.9,47.032Z" transform="translate(-1191.999 -44.934)"/><g transform="translate(4.324 41.969)"><rect width="1.743" height="39.283" transform="translate(0 1.66) rotate(-72.201)"/></g></g><g transform="translate(790.96 73.64)"><g transform="translate(0 15.31)"><path d="M1053.8,202.98c-2.463-1.91-3.376-3.405-5.5-3.525-1.969-.111-4.333,1-4.954,2.806-.861,2.51,1.965,5.392,3.669,6.614,5.992,4.3,15.907.867,15.976-1.053C1063.033,206.6,1059.022,207.029,1053.8,202.98Z" transform="translate(-1042.313 -198.576)" fill="#45682f"/><path d="M1052.054,209.7a13.068,13.068,0,0,1-7.679-2.24c-1.966-1.41-5.017-4.6-3.986-7.605.784-2.286,3.579-3.522,5.828-3.394,1.83.1,2.9,1.051,4.259,2.251.5.438,1.057.935,1.727,1.455h0a20.976,20.976,0,0,0,7.047,3.581c1.409.451,2.522.808,2.48,1.982-.031.856-.8,1.659-2.283,2.387A17.728,17.728,0,0,1,1052.054,209.7Zm-6.158-11.5c-1.534,0-3.388.855-3.858,2.225-.65,1.894,1.649,4.4,3.353,5.624,3.317,2.381,8.03,2.2,11.334,1.246a8.15,8.15,0,0,0,3.122-1.49c-.282-.121-.74-.267-1.129-.392a22.835,22.835,0,0,1-7.583-3.863h0c-.715-.554-1.3-1.071-1.814-1.527-1.233-1.09-1.976-1.748-3.2-1.817Q1046.009,198.191,1045.9,198.191Zm14.187,7.733h0ZM1060,205.6Z" transform="translate(-1040.182 -196.448)"/></g><g transform="translate(24.665 8.176)"><path d="M1128.927,190.149c1.992,1.739,6.8-1.159,7.939-1.844,2.471-1.489,6.043-3.641,6.167-7.365.073-2.2-1.053-4.978-3.129-5.8-3.839-1.516-9.924,4.067-11.391,9.763C1128.268,185.856,1127.486,188.89,1128.927,190.149Z" transform="translate(-1127.21 -174.017)" fill="#45682f"/><path d="M1128.487,189.437a3.311,3.311,0,0,1-2.258-.761h0c-1.846-1.611-.973-5-.686-6.117a16.5,16.5,0,0,1,7.663-9.813,5.925,5.925,0,0,1,4.892-.544c2.5.987,3.762,4.157,3.68,6.637-.139,4.2-4.02,6.535-6.588,8.083C1132.41,188.6,1130.168,189.437,1128.487,189.437Zm-1.112-2.074c.354.31,1.9,1.085,6.915-1.934,2.38-1.434,5.638-3.4,5.746-6.648.062-1.87-.906-4.3-2.578-4.958a4.4,4.4,0,0,0-3.46.476,14.6,14.6,0,0,0-6.766,8.694c-.738,2.864-.329,3.957.144,4.37Z" transform="translate(-1125.084 -171.888)"/></g><g transform="translate(9.903)"><rect width="17.429" height="35.309" rx="8.715" transform="translate(0.872 0.872)" fill="#5d8c41"/><path d="M1085.7,180.8h-3.688a7.751,7.751,0,0,1-7.742-7.742V151.488a7.751,7.751,0,0,1,7.742-7.742h3.688a7.751,7.751,0,0,1,7.742,7.742v21.568A7.751,7.751,0,0,1,1085.7,180.8Zm-3.688-35.309a6.006,6.006,0,0,0-6,6v21.568a6.006,6.006,0,0,0,6,6h3.688a6.006,6.006,0,0,0,6-6V151.488a6.006,6.006,0,0,0-6-6Z" transform="translate(-1074.271 -143.746)"/></g><g transform="translate(2.518 30.863)"><path d="M1078.356,277.237l-19.255-.383-6.351-23.871h30.66Q1080.883,265.11,1078.356,277.237Z" transform="translate(-1051.616 -252.111)" fill="#cf705a"/><path d="M1076.293,275.994l-20.635-.411-6.811-25.6h32.865Zm-19.287-2.127,17.876.356,4.687-22.5h-28.454Z" transform="translate(-1048.848 -249.983)"/></g></g><g transform="translate(874.476 111.854)"><g transform="translate(1.314 2.266)"><path d="M1332.184,295.336l5.177-12.251,5.032,12.251Z" transform="translate(-1332.184 -283.086)" fill="#bca463"/></g><path d="M1334.14,279.818l1.433,3.49,2.309,5.623h-7.594l2.295-5.429,1.557-3.684m.023-4.532-6.5,15.388h12.823l-6.32-15.388Z" transform="translate(-1327.66 -275.286)"/></g><g transform="translate(791.275 111.715)"><g transform="translate(74.376)"><rect width="13.556" height="45.706" transform="translate(0.872 0.872)" fill="#7a6441"/><path d="M1312.582,322.257h-15.3V274.808h15.3Zm-13.556-1.743h11.813V276.551h-11.813Z" transform="translate(-1297.283 -274.808)"/></g><g transform="translate(0)"><rect width="74.375" height="46.164" transform="translate(0.872 0.872)" fill="#bea26c"/><path d="M1117.386,322.715h-76.119V274.808h76.119Zm-74.376-1.743h72.633V276.551H1043.01Z" transform="translate(-1041.267 -274.808)"/></g></g><g transform="translate(782.464 111.823)"><path d="M1023.653,278.178h71.078l-6.961,14.289h-71.811Z" transform="translate(-1014.5 -277.306)" fill="#bca463"/><path d="M1084.751,291.21h-73.815l8.633-16.032h72.993Zm-70.9-1.743h69.807l6.112-12.546H1020.61Z" transform="translate(-1010.936 -275.178)"/></g><g transform="translate(754.159 157.421)"><g transform="translate(0.872 0.872)"><path d="M916.505,440.343c.766,1.62,1.912,3.892,3.48,6.5,2.066,3.44,4.933,7.584,14.663,17.771,10.9,11.412,14.608,13.9,16.849,15.218a40.7,40.7,0,0,0,10.292,4.358c7.422,1.771,16.665-1.052,16.983-3.85.127-1.12-1.165-2.312-1.424-2.552a6.7,6.7,0,0,0-4.162-1.48c-5.724-.583-9.222-1.426-9.23-1.347a45.4,45.4,0,0,0,4.713.641c.277-.184.582-.451.574-.763-.022-.893-2.581-1.525-3.193-1.624-3.535-.568-7.133.608-9.569,1.693q-3.11-3.138-6.216-6.565a201.1,201.1,0,0,1-24.328-33.208" transform="translate(-916.505 -435.138)" fill="#a2abe3"/></g><g transform="translate(0)"><path d="M964.656,483.492a22.51,22.51,0,0,1-5.2-.581,41.967,41.967,0,0,1-10.532-4.455c-2.805-1.655-6.811-4.662-17.036-15.366-9.982-10.45-12.775-14.585-14.78-17.924-1.277-2.128-2.462-4.341-3.521-6.579a.872.872,0,1,1,1.576-.745c1.034,2.186,2.192,4.348,3.44,6.427,1.954,3.255,4.687,7.3,14.546,17.617,11.468,12.006,14.976,14.075,16.662,15.069a40.08,40.08,0,0,0,10.051,4.261c5.427,1.3,12.094.046,14.916-1.933a2.175,2.175,0,0,0,1-1.168c.036-.313-.244-.976-1.149-1.812a5.842,5.842,0,0,0-3.587-1.246l-.072-.007c-3.7-.377-6.449-.856-7.986-1.137l-.376-.052c-1.008-.142-1.736-.244-1.647-1.114l.039-.379.306-.231c.329-.246.491-.216,1.545-.021l.407.075c.519.069,1.263.164,2.331.294a8.884,8.884,0,0,0-1.806-.534,16.458,16.458,0,0,0-9.076,1.628l-.55.245-.424-.427c-2.122-2.142-4.223-4.36-6.243-6.593a202.616,202.616,0,0,1-24.433-33.352.871.871,0,0,1,1.5-.882,200.891,200.891,0,0,0,24.223,33.065c1.87,2.067,3.809,4.121,5.771,6.112a17.493,17.493,0,0,1,9.506-1.517c.4.064,3.881.675,3.926,2.463a1.362,1.362,0,0,1-.016.25c.959.129,2.021.257,3.176.374l.072.007a7.367,7.367,0,0,1,4.593,1.7c.856.79,1.846,2,1.7,3.29a3.576,3.576,0,0,1-1.73,2.4C973.527,482.289,969.183,483.492,964.656,483.492Z" transform="translate(-913.504 -432.137)"/></g></g><g transform="translate(741.707 198.274)"><g transform="translate(0.872 0.872)"><path d="M873.644,575.763a35.214,35.214,0,0,0,11.58.387" transform="translate(-873.644 -575.763)" fill="#32a3dd"/></g><path d="M878.462,575.2h-.127a36.239,36.239,0,0,1-6.993-.71.872.872,0,1,1,.343-1.709,34.478,34.478,0,0,0,6.656.675,33.979,33.979,0,0,0,4.638-.3.872.872,0,0,1,.229,1.728A36.225,36.225,0,0,1,878.462,575.2Z" transform="translate(-870.643 -572.762)"/></g></g></svg>