<svg xmlns="http://www.w3.org/2000/svg" width="239.572" height="600.129" viewBox="0 0 239.572 600.129"><g transform="translate(-91.428 167.129)"><g transform="translate(136.951 131.672)"><g transform="translate(0 3.935)"><path d="M-874,882.319a129.019,129.019,0,0,1-23.119,4.427,128.894,128.894,0,0,1-18.2.492" transform="translate(916.444 -881.195)" fill="#ffcf26"/><path d="M-912.089,886.107q-2.833,0-5.656-.123a1.124,1.124,0,0,1-1.074-1.172,1.125,1.125,0,0,1,1.172-1.074,128.216,128.216,0,0,0,18.041-.488,128.185,128.185,0,0,0,22.918-4.388,1.124,1.124,0,0,1,1.391.769,1.124,1.124,0,0,1-.769,1.391,130.448,130.448,0,0,1-23.321,4.465C-903.59,885.9-907.844,886.107-912.089,886.107Z" transform="translate(918.819 -878.818)"/></g><g transform="translate(25.086 0)"><path d="M-837.192,870.063-820.96,874" transform="translate(838.316 -868.939)" fill="#ffcf26"/><path d="M-823.335,872.746a1.128,1.128,0,0,1-.266-.032l-16.232-3.935a1.124,1.124,0,0,1-.827-1.357,1.124,1.124,0,0,1,1.357-.827l16.232,3.935a1.124,1.124,0,0,1,.827,1.357A1.124,1.124,0,0,1-823.335,872.746Z" transform="translate(840.693 -866.562)"/></g><g transform="translate(31.481 3.936)"><path d="M-807.439,882.319l-9.838,10.822" transform="translate(818.401 -881.195)" fill="#ffcf26"/><path d="M-819.654,891.889a1.122,1.122,0,0,1-.756-.292,1.124,1.124,0,0,1-.075-1.588l9.838-10.822a1.125,1.125,0,0,1,1.588-.076,1.124,1.124,0,0,1,.075,1.587l-9.838,10.822A1.121,1.121,0,0,1-819.654,891.889Z" transform="translate(820.777 -878.82)"/></g></g><g transform="translate(91.428 136.732)"><path d="M-1056.605,885.154l1.684.931-.576,1-1.714-1,.015,1.905h-1.123l.015-1.891-1.7.99-.591-1,1.7-.931-1.7-.931.591-1.019,1.7,1-.015-1.891h1.123l-.015,1.905,1.714-1.019.576,1.019Z" transform="translate(1060.593 -882.318)"/><path d="M-1032.288,891.886l-3.693,8.523a3.973,3.973,0,0,1-1.255,1.809,3.011,3.011,0,0,1-1.788.524,3.677,3.677,0,0,1-1.167-.192,2.587,2.587,0,0,1-.945-.532l.739-1.359a2.016,2.016,0,0,0,.628.4,1.925,1.925,0,0,0,.731.148,1.258,1.258,0,0,0,.8-.251,2.221,2.221,0,0,0,.584-.842l.133-.31-3.442-7.917h1.92l2.482,5.834,2.5-5.834Z" transform="translate(1047.384 -888.814)"/><path d="M-1010.67,899.172a3.771,3.771,0,0,1-1.5-1.44,4.066,4.066,0,0,1-.539-2.09,4.029,4.029,0,0,1,.539-2.083,3.789,3.789,0,0,1,1.5-1.433,4.479,4.479,0,0,1,2.156-.517,4.51,4.51,0,0,1,2.172.517,3.788,3.788,0,0,1,1.5,1.433,4.029,4.029,0,0,1,.539,2.083,4.066,4.066,0,0,1-.539,2.09,3.77,3.77,0,0,1-1.5,1.44,4.5,4.5,0,0,1-2.172.517A4.474,4.474,0,0,1-1010.67,899.172Zm3.84-1.743a2.446,2.446,0,0,0,.665-1.787,2.446,2.446,0,0,0-.665-1.787,2.256,2.256,0,0,0-1.684-.679,2.232,2.232,0,0,0-1.676.679,2.462,2.462,0,0,0-.657,1.787,2.461,2.461,0,0,0,.657,1.787,2.231,2.231,0,0,0,1.676.68A2.255,2.255,0,0,0-1006.83,897.43Z" transform="translate(1028.084 -888.626)"/><path d="M-973.5,891.886v7.888h-1.757v-1a2.94,2.94,0,0,1-1.108.82,3.566,3.566,0,0,1-1.433.288A3.427,3.427,0,0,1-980.29,899a3.467,3.467,0,0,1-.908-2.607v-4.505h1.846v4.254a2.285,2.285,0,0,0,.48,1.588,1.758,1.758,0,0,0,1.366.524,2.069,2.069,0,0,0,1.573-.613,2.463,2.463,0,0,0,.583-1.765v-3.988Z" transform="translate(1006.692 -888.814)"/></g><g transform="translate(962.038 1448.48)"><g transform="translate(-786.012 -1212.041)"><path d="M-613.656-382.658c.876-3.96,36.1,9.461,59.938-6.627,7.989-5.393,13.474-13.248,15.852-11.775,1.963,1.216.379,8.094-2.529,13.036-5.8,9.853-17.274,12.666-24.946,14.553-2.331.573-22.5,5.225-42.763-5.007C-610.706-379.792-613.925-381.445-613.656-382.658Z" transform="translate(614.676 402.251)" fill="#a2abe3"/><path d="M-581.652-372.927a64.072,64.072,0,0,1-28.911-6.682c-3.938-1.989-6.489-3.431-6.078-5.288h0c.474-2.142,3.694-1.723,10.751-.806,12.567,1.634,33.6,4.368,49.6-6.433a72.723,72.723,0,0,0,8.694-7.24c3.752-3.495,6.231-5.8,8.243-4.557,2.849,1.765.642,9.572-2.194,14.392-6,10.2-17.761,13.1-25.541,15.01A63.27,63.27,0,0,1-581.652-372.927Zm-32.9-11.445c.7.86,3.7,2.376,4.895,2.979,19.361,9.778,38.444,5.821,42.073,4.928,7.482-1.84,18.747-4.611,24.323-14.089,3.116-5.3,3.831-11.08,2.864-11.679-.713-.443-3.669,2.31-5.828,4.32a74.336,74.336,0,0,1-8.938,7.433c-16.63,11.225-38.975,8.319-50.98,6.759C-609.563-384.164-613.4-384.662-614.556-384.372Z" transform="translate(616.684 404.274)"/></g><g transform="translate(-822.102 -1615.609)"><path d="M-599.687-1608.839c-26.706-7.83-50.083-1.385-55.868.361-45.181,13.641-76.976,69.047-63.351,110.467,9.968,30.3,41.487,44.742,57.865,52.244l1.6.734,15.624,400.728a51.616,51.616,0,0,0-17.562.684c-6.2,1.352-7.326,2.879-7.737,3.888-1.176,2.887,1.351,6.772,3.857,8.8,3.856,3.125,8.724,2.7,12.985,2.309,7.862-.713,17.653-3.985,20.265-7.488-.215,2.647.77,5.674,2.243,10.553,1.816,6.016,3.455,7.608,4.088,8.173a11.483,11.483,0,0,0,7.088,2.883c4.874.151,10-3.1,11.2-7.548.9-3.346-.688-6.216-3.289-10.869a46.074,46.074,0,0,0-8.805-11.209l15.723-390.435c30.17-5.032,57.457-28.47,66.979-58.074C-521.38-1540.5-555.228-1595.8-599.687-1608.839Z" transform="translate(723.062 1613.623)" fill="#cf705a" opacity="0.995"/><path d="M-620.2-1015.48q-.179,0-.358-.005a12.5,12.5,0,0,1-7.721-3.136c-.6-.535-2.428-2.163-4.38-8.629l-.273-.9a49.344,49.344,0,0,1-1.943-7.659c-4.162,3.167-12.6,5.6-19.246,6.2-4.241.384-9.52.863-13.7-2.528-2.481-2.011-5.635-6.321-4.153-9.957.585-1.436,2.046-3.092,8.449-4.488a52.526,52.526,0,0,1,16.73-.835l-15.554-398.948-1.046-.478c-8.068-3.7-20.26-9.281-31.518-17.68-13.467-10.047-22.511-21.877-26.881-35.161-6.149-18.694-3.37-41.53,7.624-62.653a106.943,106.943,0,0,1,23.508-30.266,88.8,88.8,0,0,1,32.88-18.817c8.544-2.579,31.146-7.779,56.438-.364,22.552,6.612,43.424,24.542,55.833,47.963a98.405,98.405,0,0,1,10.888,33.926,82.132,82.132,0,0,1-3.139,35.583,86.442,86.442,0,0,1-26.044,38.7,85.781,85.781,0,0,1-40.92,19.914l-15.672,389.172a47.005,47.005,0,0,1,8.661,11.137c2.646,4.733,4.394,7.86,3.382,11.617C-609.613-1019.138-614.875-1015.48-620.2-1015.48Zm-12.468-26-.282,3.466c-.186,2.29.656,5.07,1.931,9.28l.273.9c1.188,3.933,2.465,6.528,3.8,7.715a10.459,10.459,0,0,0,6.453,2.63c4.584.137,9.156-2.913,10.206-6.809.8-2.971-.7-5.663-3.2-10.121a45.041,45.041,0,0,0-8.615-10.966l-.335-.313.018-.459,15.755-391.246.8-.134c30.169-5.031,56.769-28.1,66.192-57.393,6.917-21.5,4.213-45.64-7.613-67.961-12.162-22.954-32.583-40.517-54.629-46.98-24.777-7.264-46.925-2.169-55.3.359-22.407,6.765-43.039,24.743-55.192,48.093-10.747,20.648-13.48,42.92-7.5,61.105,9.832,29.888,40.731,44.043,57.332,51.648l2.163.989.024.614,15.67,401.906-1.169-.147a50.9,50.9,0,0,0-17.224.67c-6.238,1.359-6.829,2.811-7.024,3.289-.9,2.213,1.146,5.693,3.561,7.65,3.554,2.88,8.182,2.461,12.266,2.09,8.151-.739,17.289-4.052,19.554-7.09Z" transform="translate(725.008 1615.609)"/><g transform="translate(85.326 173.302)"><path d="M-463.162-690.218a1,1,0,0,1-1-.988L-468.9-1094.42a1,1,0,0,1,.988-1.011h.012a1,1,0,0,1,1,.988l4.736,403.214a1,1,0,0,1-.988,1.011Z" transform="translate(468.897 1095.431)"/></g><g transform="translate(69.793 168.649)"><path d="M-512.519-1106.4a57.37,57.37,0,0,0,17.413,5.083,56.142,56.142,0,0,0,6.07.422" transform="translate(513.519 1107.399)" fill="#ffcf26"/><path d="M-491.037-1101.9h-.016a57.438,57.438,0,0,1-6.178-.429,58.372,58.372,0,0,1-17.716-5.17,1,1,0,0,1-.478-1.33,1,1,0,0,1,1.33-.478,56.4,56.4,0,0,0,17.11,4.995,55.384,55.384,0,0,0,5.962.414,1,1,0,0,1,.984,1.015A1,1,0,0,1-491.037-1101.9Z" transform="translate(515.519 1109.4)"/></g></g><g transform="translate(-835.528 -1174.651)"><path d="M-702.469-152.826c-1.93-2.879-6.59-1.564-12.971-2.837a31.548,31.548,0,0,1-11.827-5.151c.784-15.757,2.207-32.559,4.505-50.255a635.819,635.819,0,0,1,13.687-72.31q-8.658-7.08-14.826-5.34-6.726,1.9-10.491,14.293c-1.666-7.017-3.27-11.44-6.785-12.789-3.178-1.22-6.525.6-8.9,1.86-7.751,4.11-10.977,11.841-12.143,15.242q9.887,55.8,19.772,111.6l-6.032,15.652c-.23.387-2,3.456-.719,5.981,1.7,3.364,7.728,3.64,10.417,1.346a5.1,5.1,0,0,0,.51-.513c2.7-3.047,1.894-6.559,3.11-13.319.09-.5.227-1.217.422-2.086,24.431,8.307,30.794,6.622,32.434,4.034A5.411,5.411,0,0,0-702.469-152.826Z" transform="translate(763.25 290.056)" fill="#a2abe3"/><path d="M-745.5-135.028a10.036,10.036,0,0,1-1.972-.195,6.42,6.42,0,0,1-4.68-3.2c-1.425-2.818.246-6.065.707-6.866l5.9-15.316L-765.31-272.184l.084-.244c1.425-4.158,4.961-11.74,12.62-15.8l.106-.056c2.415-1.282,6.066-3.219,9.621-1.854,3.285,1.261,5.018,4.608,6.566,10.214,2.525-6.623,5.908-10.569,10.081-11.746,4.425-1.248,9.718.611,15.73,5.528l.49.4-.154.615a637.372,637.372,0,0,0-13.665,72.2c-2.129,16.4-3.633,33.086-4.47,49.615a30.673,30.673,0,0,0,11,4.682,42.471,42.471,0,0,0,6.1.671c3.355.194,6,.346,7.509,2.59a6.377,6.377,0,0,1,.177,6.5c-1.253,1.977-4.057,2.806-8.575,2.532-5.409-.327-13.467-2.276-23.959-5.794-.064.321-.125.64-.182.957-.387,2.151-.565,3.964-.722,5.564-.339,3.448-.583,5.939-2.624,8.241a6.283,6.283,0,0,1-.61.612A8.283,8.283,0,0,1-745.5-135.028Zm-17.751-136.995L-743.476-160.4l-6.205,16.062c-.178.3-1.712,2.991-.687,5.019a4.633,4.633,0,0,0,3.29,2.139,7.034,7.034,0,0,0,5.587-1.1,4.434,4.434,0,0,0,.41-.416c1.61-1.817,1.807-3.809,2.131-7.111.161-1.637.343-3.493.744-5.723.126-.7.271-1.417.43-2.128l.244-1.086,1.054.358c24.4,8.3,30.063,6.346,31.268,4.445a4.429,4.429,0,0,0-.149-4.316h0c-.909-1.355-2.67-1.518-5.964-1.707a44.149,44.149,0,0,1-6.373-.707,32.879,32.879,0,0,1-12.2-5.308l-.459-.316.028-.557c.834-16.764,2.352-33.7,4.513-50.334a639.434,639.434,0,0,1,13.553-71.8c-5.266-4.185-9.782-5.785-13.43-4.755-4.112,1.16-7.411,5.743-9.807,13.621l-1.075,3.536-.854-3.6c-1.608-6.772-3.133-10.921-6.171-12.087-2.707-1.039-5.748.575-7.968,1.753l-.106.056C-758.255-282.972-761.6-276.734-763.251-272.023Z" transform="translate(765.31 292.048)"/></g><g transform="translate(-870.61 -1219.74)"><path d="M-793.551-297.426a60.46,60.46,0,0,0,32.091-14.961c28.964-26.43,18.8-71.166-.923-93.1-3.052-3.393-12.931-14.083-29.058-17.725-29.169-6.586-63.227,13.984-73.109,44.662-5.985,18.582-3.966,43.571,12.347,61.354,12.923,14.087,30.547,18.1,30.547,18.1a54.875,54.875,0,0,0,5.558.994" transform="translate(868.626 425.421)" fill="#a2abe3"/><path d="M-795.536-298.39a1,1,0,0,1-.987-.853,1,1,0,0,1,.842-1.136,59.512,59.512,0,0,0,31.563-14.711c28.815-26.295,17.7-70.906-.992-91.691-8.22-9.139-17.821-15-28.536-17.418-28.687-6.477-62.3,14.08-71.937,43.993-5.185,16.1-5.119,41.567,12.132,60.372,12.55,13.68,29.86,17.767,30.033,17.806a54.167,54.167,0,0,0,5.461.977,1,1,0,0,1,.866,1.117,1,1,0,0,1-1.117.867,56.108,56.108,0,0,1-5.659-1.012c-.728-.166-18.073-4.249-31.057-18.4a60.016,60.016,0,0,1-14.785-30.889,68.037,68.037,0,0,1,2.223-31.447c4.772-14.816,15.617-28.248,29.753-36.853,14.113-8.591,30.342-11.681,44.527-8.478,11.126,2.512,21.079,8.579,29.581,18.031,10.534,11.711,17.627,28.7,18.974,45.45a64.288,64.288,0,0,1-3,26.026,54.774,54.774,0,0,1-15.122,23.028A61.5,61.5,0,0,1-795.388-298.4,1.021,1.021,0,0,1-795.536-298.39Z" transform="translate(870.61 427.384)"/></g><g transform="translate(-798.858 -1092.745)"><path d="M-652.241-42.9q1.164-.131,2.323-.3" transform="translate(653.241 44.2)" fill="#f24959"/><path d="M-654.243-43.9a1,1,0,0,1-.992-.887,1,1,0,0,1,.881-1.105c.76-.086,1.53-.187,2.289-.3a1,1,0,0,1,1.135.842,1,1,0,0,1-.842,1.135c-.782.116-1.575.22-2.358.309A1,1,0,0,1-654.243-43.9Z" transform="translate(655.241 46.202)"/></g><g transform="translate(-807.398 -1092.441)"><path d="M-677.876-41.859l8.54-.429" transform="translate(678.875 43.288)" fill="#f24959"/><path d="M-679.878-42.861a1,1,0,0,1-1-.95,1,1,0,0,1,.948-1.048l8.541-.429a1,1,0,0,1,1.048.948,1,1,0,0,1-.948,1.048l-8.541.429Z" transform="translate(680.876 45.289)"/></g><g transform="translate(-770.035 -1190.275)"><path d="M-564.951-332.96a5.3,5.3,0,0,1-2.6-.7,1.952,1.952,0,0,1-1.177-1.562h0c0-.763.492-.992,1.956-1.674.318-.148.7-.327,1.166-.547.6-.284,1.081-.518,1.474-.709,1.623-.789,2.113-1.027,2.739-.531a1.878,1.878,0,0,1,.553,1.7A4.606,4.606,0,0,1-563-333.444,3.961,3.961,0,0,1-564.951-332.96Zm-1.75-2.132a3.175,3.175,0,0,0,2.887.2,3.021,3.021,0,0,0,1.315-2.194c-.24.111-.553.263-.9.434-.4.193-.885.43-1.488.716-.468.222-.856.4-1.177.552C-566.3-335.281-566.517-335.18-566.7-335.092Z" transform="translate(568.728 338.944)"/></g><g transform="translate(-794.72 -1172.061)"><path d="M-639.819-253.818c2.156.425,5.232.952,8.949,1.31,4.9.471,11.075.666,28.214-1.5,19.2-2.428,24.352-4.272,27.29-5.518a46.718,46.718,0,0,0,11.8-6.97c4.454-3.657,11.126-10.609,9.508-13.406-.958-1.655-4.636-1.543-6.9-.974a23.3,23.3,0,0,0-10.128,5.515,58.877,58.877,0,0,0,5.4-3.714,2.935,2.935,0,0,0-1.669-1.589c-1.463-.412-2.961,1.017-3.929,1.964-3.137,3.071-4.6,7.477-5.308,10.669q-5.361.778-11,1.343a246.581,246.581,0,0,1-50.481-.225" transform="translate(640.819 282.263)" fill="#a2abe3"/><path d="M-626.638-253.213a62.531,62.531,0,0,1-6.329-.311c-3.029-.291-6.073-.737-9.047-1.324a1,1,0,0,1-.787-1.174,1,1,0,0,1,1.174-.787c2.91.574,5.888,1.01,8.852,1.3,4.639.446,10.621.7,27.992-1.5,20.21-2.556,24.813-4.509,27.025-5.447a45.937,45.937,0,0,0,11.557-6.823c5.886-4.832,10.221-10.5,9.277-12.133-.519-.9-3.278-1.137-5.789-.506a22.04,22.04,0,0,0-4.362,1.627l-.026.019c-1.957,1.4-3.4,2.416-4.3,3.027-.4.274-.7.468-.9.592-.894.551-1.379.16-1.589-.123l-.318-.429.18-.514c.167-.466,2.062-2.159,4.868-3.724a1.182,1.182,0,0,0-.464-.269c-.938-.265-2.252,1.025-2.958,1.717-2.323,2.273-4.062,5.79-5.031,10.171l-.149.674-.683.1c-3.658.531-7.375.984-11.05,1.348a248.4,248.4,0,0,1-50.686-.225,1,1,0,0,1-.888-1.1,1,1,0,0,1,1.1-.888,246.41,246.41,0,0,0,50.278.224c3.418-.338,6.874-.755,10.283-1.24,1.09-4.5,2.915-8.031,5.428-10.492,1-.975,2.848-2.79,4.9-2.212a3.4,3.4,0,0,1,1.762,1.255,23.519,23.519,0,0,1,4.118-1.476c2.166-.545,6.626-.944,8.007,1.443,2.592,4.479-9.234,14.265-9.739,14.679a47.882,47.882,0,0,1-12.045,7.118c-3.672,1.558-9.552,3.314-27.555,5.59A181.589,181.589,0,0,1-626.638-253.213Z" transform="translate(642.82 284.274)"/></g><g transform="translate(-764.034 -1193.147)"><circle cx="1.066" cy="1.066" r="1.066" transform="translate(0 0)"/></g><g transform="translate(-775.012 -1187.277)"><circle cx="1.066" cy="1.066" r="1.066" transform="translate(0 0)"/></g><g transform="translate(-807.819 -1092.012)"><path d="M-681.139,12.106h-.008a1,1,0,0,1-.992-1.007l.421-54.11a1,1,0,0,1,1-.992h.008a1,1,0,0,1,.992,1.007l-.421,54.11A1,1,0,0,1-681.139,12.106Z" transform="translate(682.139 44.002)"/></g></g></g></svg>