<svg xmlns="http://www.w3.org/2000/svg" width="179.886" height="192.067" viewBox="0 0 179.886 192.067"><g transform="translate(1727.394 -789.186)"><g transform="translate(-1610.199 792.182)"><path d="M-1352.917,829.081c.234.544,5.172,11.5,16.628,13.013,9.064,1.2,18.244-4.034,22.317-13a14.739,14.739,0,0,0-2.7-4.9c-2.278-2.708-4.967-3.8-4.659-5.15.158-.692,1.011-1.044,1.471-1.234,2.326-.959,3.884.983,5.4.49,2.716-.885.477-8.068,4.5-13.072,1.458-1.816,4.432-4.205,6.867-3.6,4.695,1.174,7.234,13.465,5.068,23.29-3.659,16.6-20.387,24.511-22.655,25.554-17.661,8.121-34.426.94-37.183-.295Z" transform="translate(1358.985 -800.581)" fill="#a2abe3"/><path d="M-1340.736,853.22a50.37,50.37,0,0,1-19.9-4.194l-.724-.324,5.8-24.713,1.152,2.675c.193.448,4.848,10.982,15.872,12.44,8.582,1.136,17.226-3.828,21.157-12.1a13.671,13.671,0,0,0-2.4-4.225,20.2,20.2,0,0,0-2.689-2.554c-1.332-1.107-2.483-2.064-2.172-3.428a3.04,3.04,0,0,1,2.042-1.909,5.2,5.2,0,0,1,4.049.182,2.585,2.585,0,0,0,1.415.283c.672-.219.853-1.887,1.044-3.653.3-2.766.673-6.209,3-9.106,1.363-1.7,4.756-4.7,7.849-3.927,2.592.648,4.711,3.976,5.813,9.131a37.9,37.9,0,0,1-.04,15.3c-3.539,16.061-18.646,24.13-23.191,26.22A42.959,42.959,0,0,1-1340.736,853.22Zm-18.385-5.632c5.208,2.2,20.109,7.136,35.663-.017,3.091-1.422,18.683-9.3,22.118-24.888,2.224-10.092-.618-21.215-4.363-22.151-1.765-.443-4.349,1.354-5.885,3.266-1.975,2.459-2.315,5.592-2.588,8.11s-.507,4.67-2.359,5.273a3.985,3.985,0,0,1-2.669-.3,3.363,3.363,0,0,0-2.658-.211c-.743.306-.883.482-.9.56.022.273.928,1.025,1.527,1.523a22.061,22.061,0,0,1,2.931,2.794,15.679,15.679,0,0,1,2.875,5.215l.117.357-.155.342a23.062,23.062,0,0,1-20.624,13.729,20.483,20.483,0,0,1-2.693-.177c-8.886-1.176-13.986-7.7-16.15-11.264Z" transform="translate(1361.355 -798.543)"/></g><g transform="translate(-1727.394 815.508)"><path d="M-1690.07,874.778c-4.248-2.832-16.2,10.66-22.991,22.441a81.394,81.394,0,0,0-10.656,29.41,52.474,52.474,0,0,0-.209,15.4c.906,6.411,3.676,16.877,7.306,16.959,2.147.049,4.19-3.546,4.967-6.049,1.952-6.292-.956-12.208.628-12.942,1.081-.5,2.838,2.132,3.993,1.5.838-.457.936-2.4.32-3.858-.7-1.651-2.06-2.058-4.495-3.909a28.279,28.279,0,0,1-3.636-3.3,29.2,29.2,0,0,1,3.015-13.54c3.752-7.372,8.354-7.721,14.2-16.677,1.341-2.056,2.813-4.665,6.475-10.224a17.139,17.139,0,0,0,1.5-2.421C-1687.658,883.069-1687.7,876.359-1690.07,874.778Z" transform="translate(1725.355 -873.436)" fill="#a2abe3"/><path d="M-1718.616,957.906h-.064c-5.676-.128-8.134-17.063-8.236-17.784a53.635,53.635,0,0,1,.21-15.671,82.679,82.679,0,0,1,10.594-29.439l.18-.311c5.822-10.1,15.645-21.828,21.362-23.166a3.7,3.7,0,0,1,2.995.406h0c2.975,1.983,2.85,9.269.763,13.978a10.087,10.087,0,0,1-.993,1.676c-.16.24-.352.527-.588.884-2.335,3.546-3.8,5.919-4.864,7.652-.625,1.015-1.119,1.817-1.609,2.567a41.99,41.99,0,0,1-7.9,8.989,24.247,24.247,0,0,0-6.246,7.6,28.47,28.47,0,0,0-2.908,12.726,27.3,27.3,0,0,0,3.255,2.915c.708.538,1.323.951,1.866,1.316a6.677,6.677,0,0,1,2.931,2.983c.776,1.832.661,4.309-.745,5.075-1.127.615-2.23-.18-3.117-.819a7.786,7.786,0,0,0-.858-.564,14.322,14.322,0,0,0,.194,2.461,22.364,22.364,0,0,1-.382,9.8C-1713.617,953.9-1715.862,957.9-1718.616,957.906Zm25.161-84.589a2.985,2.985,0,0,0-.677.087c-4.578,1.071-13.8,11.263-20.135,22.255l-.181.313a79.61,79.61,0,0,0-10.357,28.757,51.788,51.788,0,0,0-.208,15.122c1.072,7.586,3.954,16.078,6.377,16.133h.023c1.379,0,3.213-2.821,4-5.374a20.754,20.754,0,0,0,.311-8.989c-.292-2.277-.5-3.922.83-4.54,1.032-.479,2.047.253,2.862.84a4.884,4.884,0,0,0,1.1.666,3.466,3.466,0,0,0-.127-2.615c-.363-.857-.947-1.274-2.233-2.138-.565-.379-1.205-.809-1.958-1.381a29.245,29.245,0,0,1-3.76-3.414l-.256-.276v-.376a30.545,30.545,0,0,1,3.119-13.975,26.139,26.139,0,0,1,6.669-8.151,40.367,40.367,0,0,0,7.58-8.615c.476-.729.964-1.522,1.582-2.525,1.073-1.744,2.544-4.132,4.9-7.7.238-.361.432-.652.594-.895a8.415,8.415,0,0,0,.833-1.387c2-4.509,1.648-10.455-.072-11.6A1.432,1.432,0,0,0-1693.455,873.317Z" transform="translate(1727.394 -871.396)"/></g><g transform="translate(-1714.37 789.186)"><path d="M-1606.892,794.89a53.629,53.629,0,0,0-34.371.259c-29.626,10.43-51.075,48.486-38.974,79.248,8.977,22.82,32.435,31.509,37.6,33.289q3.269,29.609,6.538,59.218c-1.938,1.466-4.427,3.256-7.784,5.351-2.164,1.35-4.074,2.444-4.079,4.055-.005,2.105,3.247,3.88,5.57,4.52,3.753,1.034,7.059-.349,9.073-1.226,2.65-1.153,6.853-3.6,9.295-6.589,2.2,3.492,7.135,6.419,10.11,7.713,2.015.877,5.321,2.26,9.074,1.226,2.323-.64,5.575-2.415,5.57-4.52,0-1.611-1.915-2.7-4.078-4.055a106.059,106.059,0,0,1-9.673-6.8l7.659-58.326c6.427-2.026,27.792-9.656,37.17-30C-1553.973,847.425-1575.673,805.563-1606.892,794.89Z" transform="translate(1684.65 -791.215)" fill="#a2abe3"/><path d="M-1609.65,981.254a16.6,16.6,0,0,1-6.708-1.674c-3.124-1.359-7.367-3.949-9.812-7.054a29.527,29.527,0,0,1-8.827,5.931c-1.942.844-5.556,2.416-9.712,1.271-2.174-.6-6.283-2.509-6.275-5.449.006-2.055,2.032-3.314,4.178-4.648l.352-.219c3.292-2.055,5.682-3.778,7.278-4.974l-6.412-58.073c-8.974-3.182-29.292-12.5-37.609-33.644-5.418-13.774-4.556-29.774,2.428-45.053,7.636-16.7,21.512-29.957,37.121-35.452a54.665,54.665,0,0,1,35-.262c16.284,5.567,30.6,19.625,38.306,37.607a65.887,65.887,0,0,1,5.463,23.676,51.081,51.081,0,0,1-4.5,23.393c-4.081,8.852-10.825,16.345-20.044,22.271a74.644,74.644,0,0,1-17.125,8.051l-7.508,57.176a103.2,103.2,0,0,0,9.157,6.409l.354.22c2.145,1.334,4.172,2.592,4.177,4.647.008,2.94-4.1,4.85-6.275,5.449A11.272,11.272,0,0,1-1609.65,981.254Zm-16.334-11.909.712,1.13c2.146,3.407,7.095,6.219,9.681,7.343,1.845.8,4.933,2.146,8.436,1.181,2.352-.648,4.868-2.246,4.864-3.592,0-.99-1.59-1.976-3.27-3.021l-.356-.222a106.507,106.507,0,0,1-9.754-6.86l-.434-.338,7.811-59.478.584-.184c8.089-2.55,27.847-10.527,36.586-29.481,6.1-13.227,5.741-29.814-.981-45.508-7.491-17.49-21.383-31.152-37.161-36.545h0a52.7,52.7,0,0,0-33.741.256c-15.126,5.325-28.588,18.2-36.011,34.439-6.765,14.8-7.614,30.267-2.388,43.551,8.207,20.863,28.624,29.841,37.021,32.732l.575.2,6.665,60.365-.435.329c-1.614,1.221-4.183,3.109-7.856,5.4l-.355.221c-1.681,1.045-3.269,2.031-3.271,3.021,0,1.346,2.512,2.944,4.865,3.592,3.5.965,6.59-.378,8.436-1.181a25.86,25.86,0,0,0,8.934-6.316Z" transform="translate(1686.714 -789.186)"/></g><g transform="translate(-1643.388 821.336)"><circle cx="1.197" cy="1.197" r="1.197" transform="translate(0 0)"/></g><g transform="translate(-1666.685 821.336)"><circle cx="1.197" cy="1.197" r="1.197" transform="translate(0 0)"/></g><g transform="translate(-1660.03 824.814)"><path d="M-1510.552,904.522c-.089,0-.178,0-.269,0a8.644,8.644,0,0,1-5.954-2.7.8.8,0,0,1,.036-1.131.8.8,0,0,1,1.131.036,7.141,7.141,0,0,0,4.837,2.2,7.254,7.254,0,0,0,5.277-2.2.8.8,0,0,1,1.131-.035.8.8,0,0,1,.035,1.131A8.76,8.76,0,0,1-1510.552,904.522Z" transform="translate(1516.992 -900.464)"/></g><g transform="translate(-1661.871 906.224)"><path d="M-1519.741,1157.8a30.429,30.429,0,0,0,7.473.873,30.444,30.444,0,0,0,7.251-.934" transform="translate(1520.702 -1156.776)" fill="#f24959"/><path d="M-1514.542,1157.592a31.424,31.424,0,0,1-7.468-.9.961.961,0,0,1-.7-1.161.962.962,0,0,1,1.162-.7,29.379,29.379,0,0,0,7.237.845,29.5,29.5,0,0,0,7.022-.9.96.96,0,0,1,1.167.695.961.961,0,0,1-.695,1.167,31.438,31.438,0,0,1-7.48.963Z" transform="translate(1522.743 -1154.735)"/></g><g transform="translate(-1654.701 907.159)"><path d="M-1499.388,1222.442h-.005a.96.96,0,0,1-.956-.965l.3-62.867a.961.961,0,0,1,.96-.956h.005a.961.961,0,0,1,.956.965l-.3,62.867A.96.96,0,0,1-1499.388,1222.442Z" transform="translate(1500.349 -1157.654)"/></g></g></svg>