<svg viewBox="0 0 27.05 22.54"><defs><style>.cls-1{fill:#8e8e8e;}</style></defs><g id="Layer_2" data-name="Layer 2"><g id="Layer_1-2" data-name="Layer 1"><g id="Group_114" data-name="Group 114"><path id="Path_68" data-name="Path 68" class="cls-1" d="M26.77,21.33,27,22V12.9a.61.61,0,1,0-1.21,0v8.43H19.29v-13h6.54v8.42a.61.61,0,1,0,1.21,0v-9a.6.6,0,0,0-.21-.45L18.65.34A1.6,1.6,0,0,0,17.44,0H9.65a.63.63,0,0,0-.37.12l-9,7.11A.62.62,0,0,0,0,7.73V21.6s0,.95.77.94H26.44a.6.6,0,0,0,.6-.61h0C27,21.6,27.1,21.33,26.77,21.33Zm-19.1,0V12.21h3.95v9.12Zm10.41,0H12.83V11.6a.6.6,0,0,0-.6-.6H7.06a.6.6,0,0,0-.6.6h0v9.73H1.21V8L9.64,1.4,18.08,8ZM11.39,1.23h6.43l7,5.89H18.9Z"/></g></g></g></svg>
