<svg viewBox="0 0 32.25 25.35"><defs><style>.cls-1{fill:#8e8e8e;}</style></defs><g id="Layer_2" data-name="Layer 2"><g id="Layer_1-2" data-name="Layer 1"><path class="cls-1" d="M8.25,4.28l0,0,0,0,0,0-.05,0,0,0L8,4.08l0,0L7.93,4l0,0L7.84,4h0l-.07,0h0l-.08,0h0l-.09,0h0l-.19-.07h0l-.08,0-.1,0h-.4a2.1,2.1,0,0,0-2.1,2.09V7.1a.48.48,0,0,0,.48.47H8.39a.47.47,0,0,0,.47-.47V5.76a2.09,2.09,0,0,0-.61-1.48ZM7.92,6.64H5.62V5.76a1.15,1.15,0,0,1,2.3,0Z"/><path class="cls-1" d="M21.46,3.67h0a2.09,2.09,0,0,0-2.09,2.09V7.11a.47.47,0,0,0,.47.47h3.24a.47.47,0,0,0,.47-.47V5.76A2.09,2.09,0,0,0,21.46,3.67Zm1.15,3h-2.3V5.76a1.15,1.15,0,1,1,2.3,0Z"/><path class="cls-1" d="M17.35,9.22H10.87a.47.47,0,0,0-.47.47,3.71,3.71,0,0,0,7.42,0A.48.48,0,0,0,17.35,9.22Zm-1.28,2.43h0a2.76,2.76,0,0,1-3.91,0,2.8,2.8,0,0,1-.78-1.5h5.47A2.73,2.73,0,0,1,16.07,11.65Z"/><path class="cls-1" d="M31.27,6.2a4.47,4.47,0,0,0-3-1.69V2.9A2.9,2.9,0,0,0,25.33,0H2.9A2.9,2.9,0,0,0,0,2.9V15.1A2.9,2.9,0,0,0,2.9,18h1v5.3a.47.47,0,0,0,.47.47.45.45,0,0,0,.31-.12L11,18H25.33a2.9,2.9,0,0,0,2.9-2.9V13.49a4.31,4.31,0,0,0,1.36-.38v4a4.76,4.76,0,0,1-4.76,4.76H20.9a3,3,0,1,0,0,.94h3.93a5.7,5.7,0,0,0,5.7-5.7V12.54A4.5,4.5,0,0,0,31.27,6.2Zm-4,8.9a2,2,0,0,1-2,2H10.84a.43.43,0,0,0-.31.12l-5.7,5.07V17.53a.47.47,0,0,0-.47-.47H2.9a2,2,0,0,1-2-2V2.9a2,2,0,0,1,2-2H25.33a2,2,0,0,1,2,2ZM17.9,24.41h0A2.09,2.09,0,1,1,20,22.32,2.09,2.09,0,0,1,17.9,24.41ZM28.23,12.55V5.46a3.58,3.58,0,0,1,0,7.09Z"/></g></g></svg>
