<svg width="auto" height="27" viewBox="0 0 26.7 26.72"><defs><style>.cls-1{fill:#8e8e8e;}</style></defs><g id="Layer_2" data-name="Layer 2"><g id="Layer_1-2" data-name="Layer 1"><path class="cls-1" d="M21.27,6.68A2.07,2.07,0,1,0,19.2,8.74,2.07,2.07,0,0,0,21.27,6.68Zm-3.35,0A1.28,1.28,0,1,1,19.2,8,1.28,1.28,0,0,1,17.92,6.68Z"/><path class="cls-1" d="M11.68,18.82A2.48,2.48,0,0,0,9.2,21.3c0,1.71,2.11,3.85,2.2,3.94a.39.39,0,0,0,.55,0c.09-.09,2.2-2.23,2.2-3.94A2.48,2.48,0,0,0,11.68,18.82Zm1.7,2.48c0,1-1.05,2.37-1.7,3.09C11,23.67,10,22.29,10,21.3a1.7,1.7,0,0,1,3.4,0Z"/><path class="cls-1" d="M11.68,20.13a1.18,1.18,0,0,0,0,2.35,1.18,1.18,0,1,0,0-2.35Zm0,1.57h0a.4.4,0,0,1,0-.79.4.4,0,0,1,0,.79Z"/><path class="cls-1" d="M7,3.69l7.61,2A.38.38,0,0,0,15,5.48l2-4.92A.4.4,0,0,0,16.85,0h0a.4.4,0,0,0-.51.22h0l-1.9,4.6L7.44,3V.41a.39.39,0,1,0-.78,0h0v2.9A.39.39,0,0,0,7,3.69Z"/><path class="cls-1" d="M5.06,15.63.5,14.42a.39.39,0,1,0-.21.75h0l4.27,1.13v2.75a.39.39,0,0,0,.39.39.38.38,0,0,0,.39-.39h0V16A.39.39,0,0,0,5.06,15.63Z"/><path class="cls-1" d="M.29,1.93h0l4.56,1.2a.39.39,0,0,0,.48-.28.31.31,0,0,0,0-.1V.41A.38.38,0,0,0,5,0H5A.39.39,0,0,0,4.57.4h0V2.26L.5,1.18a.39.39,0,1,0-.21.75Z"/><path class="cls-1" d="M5,20.55a.38.38,0,0,0-.39.39v5.38a.39.39,0,0,0,.78,0h0V20.94A.38.38,0,0,0,5,20.55Z"/><path class="cls-1" d="M.5,12.26A.39.39,0,1,0,.29,13h0l4.56,1.2a.39.39,0,0,0,.48-.28.31.31,0,0,0,0-.1V4.93a.39.39,0,0,0-.29-.38L.5,3.34a.39.39,0,1,0-.21.75h0L4.57,5.23v8.1Z"/><path class="cls-1" d="M7,14.77l13.48,3.57a.39.39,0,0,0,.46-.23l3.32-8A.39.39,0,0,0,24,9.56l0,0-1.7-.45a6.8,6.8,0,0,0,.5-1.22l1.8.48A.41.41,0,0,0,25,8.12l1.66-4a.4.4,0,0,0-.21-.52h0A.39.39,0,0,0,26,3.8h0L24.42,7.5l-1.51-.4a3,3,0,0,0,0-.43A3.73,3.73,0,0,0,19.2,2.94a4.06,4.06,0,0,0-.92.11l1-2.5a.4.4,0,0,0-.2-.52.4.4,0,0,0-.52.2v0L17.26,3.48a3.75,3.75,0,0,0-1.79,3.19,3.39,3.39,0,0,0,.06.64L7.15,5.1a.39.39,0,0,0-.48.27.38.38,0,0,0,0,.1v2a2.48,2.48,0,0,0-.8,1.83,4.32,4.32,0,0,0,.8,2.18V14.4A.38.38,0,0,0,7,14.77Zm12.25-11a3,3,0,0,1,3,3c0,1.9-2.17,4.43-3,5.28-.78-.85-2.95-3.38-2.95-5.28A3,3,0,0,1,19.2,3.72ZM7.43,6l8.33,2.2a15.21,15.21,0,0,0,3.16,4.61.39.39,0,0,0,.55,0,17.76,17.76,0,0,0,2.37-3l1.47.4-3,7.31L7.44,14.1V12.53c.33.4.59.66.62.69a.39.39,0,0,0,.55,0c.09-.09,2.2-2.22,2.2-3.93A2.48,2.48,0,0,0,8.33,6.81a2.51,2.51,0,0,0-.9.16Zm-.8,3.3a1.7,1.7,0,1,1,3.4,0c0,1-1,2.37-1.7,3.08C7.69,11.66,6.63,10.28,6.63,9.29Z"/><path class="cls-1" d="M26.42,21.28h0l-4.55-1.2a.39.39,0,0,0-.46.23L19,26.17a.4.4,0,0,0,.2.52.39.39,0,0,0,.52-.2v0L22,20.92,26.21,22a.39.39,0,0,0,.21-.75Z"/><path class="cls-1" d="M26.05,10.09a.39.39,0,0,0-.52.2v0l-3.31,8a.38.38,0,0,0,.21.51l0,0,3.74,1a.41.41,0,0,0,.48-.29.39.39,0,0,0-.28-.47h0l-3.31-.88,3.15-7.62A.39.39,0,0,0,26.05,10.09Z"/><path class="cls-1" d="M20.07,19.74a.36.36,0,0,0-.25-.2L7.15,16.18a.4.4,0,0,0-.48.28.34.34,0,0,0,0,.1v9.76a.39.39,0,0,0,.78,0V17.06l11.75,3.11-2.47,6a.4.4,0,0,0,.19.52.39.39,0,0,0,.52-.2v0l2.65-6.41A.36.36,0,0,0,20.07,19.74Z"/><path class="cls-1" d="M9.51,9.29a1.18,1.18,0,1,0-1.17,1.17A1.17,1.17,0,0,0,9.51,9.29ZM8,9.29a.38.38,0,0,1,.39-.39.39.39,0,0,1,.39.39.4.4,0,0,1-.39.39A.39.39,0,0,1,8,9.29Z"/></g></g></svg>
