<svg viewBox="0 0 24.84 27.35"><defs><style>.cls-1{fill:#8e8e8e;}</style></defs><g id="Layer_2" data-name="Layer 2"><g id="pouf"><path class="cls-1" d="M23.49,5.48,12.67.05a.43.43,0,0,0-.41,0L1.36,5.48A2.45,2.45,0,0,0,0,7.68V20.91a.47.47,0,0,0,.25.41l3,1.5h0a.27.27,0,0,0,.12,0h0a.48.48,0,0,0,.18,0h0l3-1.5a.45.45,0,0,0,.25-.41V18.65l2.08,1v5.7a.45.45,0,0,0,.26.41l3,1.5a.47.47,0,0,0,.4,0l3-1.5a.46.46,0,0,0,.25-.41v-5.7l2.08-1v2.26a.43.43,0,0,0,.25.4l3,1.5h0a.35.35,0,0,0,.18.05h.11l.1,0,3-1.5a.45.45,0,0,0,.25-.4V7.67A2.45,2.45,0,0,0,23.49,5.48ZM6,18.41v2.21l-2.08,1V17.15L6,18.22A.41.41,0,0,0,6,18.41Zm6.21,7.86L9.88,25.11v-5.7A.44.44,0,0,0,9.63,19l-6-3a.45.45,0,0,0-.61.2.46.46,0,0,0,0,.21v5.24l-2.08-1V12.17l11.28,5.64Zm0-12.36v2.88L.91,11.15V7.68A1.54,1.54,0,0,1,1.76,6.3L12.46,1,23.08,6.3a1.59,1.59,0,0,1,.57.49L13.42,11.92A2.22,2.22,0,0,0,12.19,13.91Zm8.75,7.76-2.08-1V18.2l2.08-1Zm3-1-2.08,1V16.42A.46.46,0,0,0,21.4,16a.54.54,0,0,0-.21.05l-6,3a.44.44,0,0,0-.25.41v5.7l-2.31,1.15V17.81l11.28-5.64ZM12.65,16.79V13.91a1.74,1.74,0,0,1,1-1.58L23.85,7.2a1.51,1.51,0,0,1,.08.48v3.47Z"/><path class="cls-1" d="M11,11.72l-8-4a.23.23,0,0,0-.31.08.23.23,0,0,0,.08.32h0l8,4a.17.17,0,0,0,.1,0,.24.24,0,0,0,.23-.23A.25.25,0,0,0,11,11.72Z"/></g></g>
</svg>
