<svg viewBox="0 0 27.35 21.65"><defs><style>.cls-1{fill:#8e8e8e;}</style></defs><g id="Layer_2" data-name="Layer 2"><g id="newspaper"><path class="cls-1" d="M24.5,0H5.13A2.85,2.85,0,0,0,2.28,2.85v.63A2.84,2.84,0,0,0,0,6.27V18.8a2.85,2.85,0,0,0,2.85,2.85H24.5a2.85,2.85,0,0,0,2.85-2.85V2.85A2.86,2.86,0,0,0,24.5,0Zm1.71,2.85v16a1.7,1.7,0,0,1-1.71,1.71H2.85A1.7,1.7,0,0,1,1.14,18.8V6.27A1.72,1.72,0,0,1,2.28,4.66V18.8a.58.58,0,0,0,.54.6.59.59,0,0,0,.6-.55V4h0V2.85A1.71,1.71,0,0,1,5.13,1.14H24.5a1.71,1.71,0,0,1,1.71,1.71Z"/><path class="cls-1" d="M14.24,10.26H5.12a.57.57,0,0,0-.57.57v6.83a.57.57,0,0,0,.57.57h9.12a.56.56,0,0,0,.57-.57V10.82A.56.56,0,0,0,14.24,10.26Zm-.57,6.83h-8v-5.7h8Z"/><path class="cls-1" d="M16.52,11.4h8a.58.58,0,0,0,.57-.57.57.57,0,0,0-.57-.57h-8a.57.57,0,0,0-.57.57A.58.58,0,0,0,16.52,11.4Z"/><path class="cls-1" d="M24.5,13.67h-8a.58.58,0,0,0-.57.57.57.57,0,0,0,.57.57h8a.57.57,0,0,0,.57-.57A.58.58,0,0,0,24.5,13.67Z"/><path class="cls-1" d="M24.5,17.09h-8a.58.58,0,0,0-.57.57.57.57,0,0,0,.57.57h8a.57.57,0,0,0,.57-.57A.58.58,0,0,0,24.5,17.09Z"/><path class="cls-1" d="M5.12,8H24.5a.58.58,0,0,0,.57-.57.57.57,0,0,0-.57-.57H5.12a.57.57,0,0,0-.57.57A.58.58,0,0,0,5.12,8Z"/><path class="cls-1" d="M5.12,4.56H24.5A.58.58,0,0,0,25.07,4a.57.57,0,0,0-.57-.57H5.12A.56.56,0,0,0,4.56,4,.57.57,0,0,0,5.12,4.56Z"/></g></g></svg>
